<?xml version="1.0"?>
<svg xmlns="http://www.w3.org/2000/svg" xmlns:xlink="http://www.w3.org/1999/xlink" version="1.1" id="Capa_1" x="0px" y="0px" viewBox="0 0 490.667 490.667" style="enable-background:new 0 0 490.667 490.667;" xml:space="preserve" width="512px" height="512px"><g><g>
	<g>
		<path d="M245.333,0C110.059,0,0,110.059,0,245.333s110.059,245.333,245.333,245.333s245.333-110.059,245.333-245.333    S380.608,0,245.333,0z M245.333,469.333c-123.52,0-224-100.48-224-224s100.48-224,224-224s224,100.48,224,224    S368.853,469.333,245.333,469.333z" data-original="#000000" class="active-path" data-old_color="#000000" fill="#464650"/>
	</g>
</g><g>
	<g>
		<path d="M348.864,333.803l-192-192c-4.16-4.16-10.923-4.16-15.083,0c-4.16,4.16-4.16,10.923,0,15.083l192,192    c2.091,2.069,4.821,3.115,7.552,3.115c2.731,0,5.461-1.045,7.531-3.115C353.024,344.725,353.024,337.963,348.864,333.803z" data-original="#000000" class="active-path" data-old_color="#000000" fill="#464650"/>
	</g>
</g><g>
	<g>
		<path d="M348.864,141.803c-4.16-4.16-10.923-4.16-15.083,0l-192,192c-4.16,4.16-4.16,10.923,0,15.083    c2.091,2.069,4.821,3.115,7.552,3.115c2.731,0,5.461-1.045,7.531-3.115l192-192C353.024,152.725,353.024,145.963,348.864,141.803z    " data-original="#000000" class="active-path" data-old_color="#000000" fill="#464650"/>
	</g>
</g></g> </svg>
