<?xml version="1.0"?>
<svg xmlns="http://www.w3.org/2000/svg" xmlns:xlink="http://www.w3.org/1999/xlink" version="1.1" id="Capa_1" x="0px" y="0px" viewBox="0 0 480 480" style="enable-background:new 0 0 480 480;" xml:space="preserve" width="512px" height="512px" class=""><g><g>
	<g>
		<path d="M344.003,176c4.418,0,8-3.582,8-8V8c0-4.418-3.582-8-8-8h-336C7.759,0.03,7.516,0.073,7.275,0.128    C6.93,0.167,6.588,0.231,6.251,0.32c-0.85,0.181-1.662,0.508-2.4,0.968C3.675,1.392,3.467,1.392,3.299,1.512    c-0.168,0.12-0.192,0.192-0.296,0.272S2.707,2.056,2.555,2.192c-0.503,0.474-0.941,1.012-1.304,1.6    c-0.088,0.136-0.192,0.256-0.272,0.4c-0.382,0.732-0.651,1.516-0.8,2.328c0,0.08-0.064,0.144-0.072,0.224    c-0.008,0.125-0.008,0.251,0,0.376C0.054,7.411,0.019,7.705,0.003,8v384c-0.001,3.445,2.204,6.503,5.472,7.592l240,80    c0.816,0.27,1.669,0.407,2.528,0.408c4.418,0,8-3.582,8-8v-72h88c4.418,0,8-3.582,8-8V232c0-4.418-3.582-8-8-8s-8,3.582-8,8v152    h-80V88c0.001-3.445-2.204-6.503-5.472-7.592L57.307,16h278.696v152C336.003,172.418,339.585,176,344.003,176z M240.003,93.768    v367.136l-224-74.672V19.104L240.003,93.768z" data-original="#000000" class="active-path" data-old_color="#000000" fill="#193651"/>
	</g>
</g><g>
	<g>
		<path d="M477.651,194.336l-90.496-90.504c-3.126-3.126-8.194-3.126-11.32,0c-3.126,3.126-3.126,8.194,0,11.32L452.691,192H280.003    c-4.418,0-8,3.582-8,8s3.582,8,8,8h172.688l-76.856,76.848c-3.126,3.126-3.126,8.194,0,11.32c3.126,3.126,8.194,3.126,11.32,0    l90.496-90.504c0.745-0.746,1.335-1.633,1.736-2.608C480.626,200.066,479.941,196.624,477.651,194.336z" data-original="#000000" class="active-path" data-old_color="#000000" fill="#193651"/>
	</g>
</g></g> </svg>
